<svg id="l_d_3344" xmlns="http://www.w3.org/2000/svg" xmlns:xlink="http://www.w3.org/1999/xlink" viewBox="0 0 45 45" width="45" height="45" preserveAspectRatio="xMidYMid meet" style="width: 100%; height: 100%; transform: translate3d(0px, 0px, 0px); content-visibility: visible;"><defs id="l_d_3345"><clipPath id="__lottie_element_1386"><rect id="l_d_3348" width="45" height="45" x="0" y="0"></rect></clipPath><g id="__lottie_element_1397"><g id="l_d_3382" style="display: none;"><g id="l_d_3387"><path id="l_d_3388"></path></g></g></g><mask id="__lottie_element_1397_1" mask-type="alpha"><use id="l_d_3396" xlink:href="#__lottie_element_1397"></use></mask><g id="__lottie_element_1403"><g id="l_d_3397" style="display: none;"><g id="l_d_3402"><path id="l_d_3403"></path></g></g></g><mask id="__lottie_element_1403_1" mask-type="alpha"><use id="l_d_3422" xlink:href="#__lottie_element_1403"></use></mask></defs><g id="l_d_3346" clip-path="url(#__lottie_element_1386)"><g id="l_d_3423" transform="matrix(1,0,0,1,-23.5,-17.5)" opacity="1" style="display: block;"><g id="l_d_3427" opacity="1" transform="matrix(1,0,0,1,40,40)"></g><g id="l_d_3428" opacity="1" transform="matrix(1,0,0,1,40,40)"><path id="l_d_3429" stroke-linecap="butt" stroke-linejoin="miter" fill-opacity="0" stroke-miterlimit="4" stroke="rgb(34,34,34)" stroke-opacity="1" stroke-width="2" d=" M-12,-13 C-12,-13 12,-13 12,-13 C12.552000045776367,-13 13,-12.552000045776367 13,-12 C13,-12 13,12 13,12 C13,12.552000045776367 12.552000045776367,13 12,13 C12,13 -12,13 -12,13 C-12.552000045776367,13 -13,12.552000045776367 -13,12 C-13,12 -13,-12 -13,-12 C-13,-12.552000045776367 -12.552000045776367,-13 -12,-13z"></path></g><g id="l_d_3430" opacity="1" transform="matrix(1,0,0,1,40,35)"><path id="l_d_3431" stroke-linecap="butt" stroke-linejoin="miter" fill-opacity="0" stroke-miterlimit="4" stroke="rgb(34,34,34)" stroke-opacity="1" stroke-width="2" d=" M13,0 C13,0 -13,0 -13,0"></path></g><g id="l_d_3432" opacity="1" transform="matrix(1,0,0,1,49,31)"><path id="l_d_3433" fill="rgb(0,0,0)" fill-opacity="1" d=" M0,-1 C0.5519999861717224,-1 1,-0.5519999861717224 1,0 C1,0.5519999861717224 0.5519999861717224,1 0,1 C-0.5519999861717224,1 -1,0.5519999861717224 -1,0 C-1,-0.5519999861717224 -0.5519999861717224,-1 0,-1z"></path></g><g id="l_d_3434" opacity="1" transform="matrix(1,0,0,1,43,31)"><path id="l_d_3435" fill="rgb(0,0,0)" fill-opacity="1" d=" M0,-1 C0.5519999861717224,-1 1,-0.5519999861717224 1,0 C1,0.5519999861717224 0.5519999861717224,1 0,1 C-0.5519999861717224,1 -1,0.5519999861717224 -1,0 C-1,-0.5519999861717224 -0.5519999861717224,-1 0,-1z"></path></g><g id="l_d_3436" opacity="1" transform="matrix(1,0,0,1,37,31)"><path id="l_d_3437" fill="rgb(0,0,0)" fill-opacity="1" d=" M0,-1 C0.5519999861717224,-1 1,-0.5519999861717224 1,0 C1,0.5519999861717224 0.5519999861717224,1 0,1 C-0.5519999861717224,1 -1,0.5519999861717224 -1,0 C-1,-0.5519999861717224 -0.5519999861717224,-1 0,-1z"></path></g><g id="l_d_3438" opacity="1" transform="matrix(1,0,0,1,31,31)"><path id="l_d_3439" fill="rgb(0,0,0)" fill-opacity="1" d=" M0,-1 C0.5519999861717224,-1 1,-0.5519999861717224 1,0 C1,0.5519999861717224 0.5519999861717224,1 0,1 C-0.5519999861717224,1 -1,0.5519999861717224 -1,0 C-1,-0.5519999861717224 -0.5519999861717224,-1 0,-1z"></path></g></g><g id="l_d_3405" mask="url(#__lottie_element_1403_1)" style="display: none;"><g id="l_d_3404"><g id="l_d_3408"></g><g id="l_d_3409"><path id="l_d_3410" stroke-linecap="butt" stroke-linejoin="miter" fill-opacity="0" stroke-miterlimit="4"></path></g><g id="l_d_3411"><path id="l_d_3412" stroke-linecap="butt" stroke-linejoin="miter" fill-opacity="0" stroke-miterlimit="4"></path></g><g id="l_d_3413"><path id="l_d_3414"></path></g><g id="l_d_3415"><path id="l_d_3416"></path></g><g id="l_d_3417"><path id="l_d_3418"></path></g><g id="l_d_3419"><path id="l_d_3420"></path></g></g></g><g id="l_d_3390" mask="url(#__lottie_element_1397_1)" style="display: none;"><g id="l_d_3389"><g id="l_d_3393"><path id="l_d_3394" stroke-linecap="butt" stroke-linejoin="round" fill-opacity="0"></path></g></g></g><g id="l_d_3365" style="display: none;"><g id="l_d_3369"></g><g id="l_d_3370"><path id="l_d_3371" stroke-linecap="butt" stroke-linejoin="miter" fill-opacity="0" stroke-miterlimit="4"></path></g><g id="l_d_3372"><path id="l_d_3373" stroke-linecap="butt" stroke-linejoin="miter" fill-opacity="0" stroke-miterlimit="4"></path></g><g id="l_d_3374"><path id="l_d_3375"></path></g><g id="l_d_3376"><path id="l_d_3377"></path></g><g id="l_d_3378"><path id="l_d_3379"></path></g><g id="l_d_3380"><path id="l_d_3381"></path></g></g><g id="l_d_3357" style="display: none;"><g id="l_d_3361"><path id="l_d_3362" stroke-linecap="butt" stroke-linejoin="miter" fill-opacity="0" stroke-miterlimit="4"></path></g><g id="l_d_3363"><path id="l_d_3364" stroke-linecap="butt" stroke-linejoin="miter" fill-opacity="0" stroke-miterlimit="4"></path></g></g><g id="l_d_3349" transform="matrix(1,0,0,1,-23.5,-17.5)" opacity="1" style="display: block;"><g id="l_d_3353" opacity="1" transform="matrix(1,0,0,1,40,44)"><path id="l_d_3354" stroke-linecap="butt" stroke-linejoin="miter" fill-opacity="0" stroke-miterlimit="4" stroke="rgb(34,34,34)" stroke-opacity="1" stroke-width="2" d=" M-9,-5 C-9,-5 9,-5 9,-5 C9,-5 9,5 9,5 C9,5 -9,5 -9,5 C-9,5 -9,-5 -9,-5z"></path></g><g id="l_d_3355" opacity="1" transform="matrix(1,0,0,1,40,35)"><path id="l_d_3356" stroke-linecap="butt" stroke-linejoin="miter" fill-opacity="0" stroke-miterlimit="4" stroke="rgb(34,34,34)" stroke-opacity="1" stroke-width="2" d=" M13,0 C13,0 -13,0 -13,0"></path></g></g></g></svg>