<svg id="l_d_3464" xmlns="http://www.w3.org/2000/svg" xmlns:xlink="http://www.w3.org/1999/xlink" viewBox="0 0 45 45" width="45" height="45" preserveAspectRatio="xMidYMid meet" style="width: 100%; height: 100%; transform: translate3d(0px, 0px, 0px); content-visibility: visible;"><defs id="l_d_3465"><clipPath id="__lottie_element_1422"><rect id="l_d_3468" width="45" height="45" x="0" y="0"></rect></clipPath><clipPath id="__lottie_element_1424"><path id="l_d_3471" fill="#ffffff" clip-rule="nonzero"></path><path id="l_d_3472" fill="#ffffff" clip-rule="nonzero"></path></clipPath><clipPath id="__lottie_element_1427"><path id="l_d_3479" fill="#ffffff" clip-rule="nonzero"></path><path id="l_d_3480" fill="#ffffff" clip-rule="nonzero"></path></clipPath><clipPath id="__lottie_element_1430"><path id="l_d_3487" fill="#ffffff" clip-rule="nonzero"></path><path id="l_d_3488" fill="#ffffff" clip-rule="nonzero"></path></clipPath><clipPath id="__lottie_element_1433"><path id="l_d_3495" fill="#ffffff" clip-rule="nonzero"></path><path id="l_d_3496" fill="#ffffff" clip-rule="nonzero"></path></clipPath><clipPath id="__lottie_element_1436"><path id="l_d_3503" fill="#ffffff" clip-rule="nonzero"></path><path id="l_d_3504" fill="#ffffff" clip-rule="nonzero"></path></clipPath><clipPath id="__lottie_element_1439"><path id="l_d_3511" fill="#ffffff" clip-rule="nonzero"></path><path id="l_d_3512" fill="#ffffff" clip-rule="nonzero"></path></clipPath><clipPath id="__lottie_element_1442"><path id="l_d_3519" fill="#ffffff" clip-rule="nonzero"></path><path id="l_d_3520" fill="#ffffff" clip-rule="nonzero"></path></clipPath></defs><g id="l_d_3466" clip-path="url(#__lottie_element_1422)"><g id="l_d_3543" transform="matrix(1.0000008344650269,0,0,1.0000008344650269,-24.00003433227539,-18.374406814575195)" opacity="1" style="display: block;"><g id="l_d_3547" opacity="1" transform="matrix(1,0,0,1,51,50)"><path id="l_d_3548" stroke-linecap="butt" stroke-linejoin="miter" fill-opacity="0" stroke-miterlimit="4" stroke="rgb(34,34,34)" stroke-opacity="1" stroke-width="2" d=" M-2,-2 C-2,-2 2,-2 2,-2 C2,-2 2,1 2,1 C2,1.5520000457763672 1.5520000457763672,2 1,2 C1,2 -1,2 -1,2 C-1.5520000457763672,2 -2,1.5520000457763672 -2,1 C-2,1 -2,-2 -2,-2 C-2,-2 -2,-2 -2,-2z"></path></g><g id="l_d_3549" opacity="1" transform="matrix(1,0,0,1,29,50)"><path id="l_d_3550" stroke-linecap="butt" stroke-linejoin="miter" fill-opacity="0" stroke-miterlimit="4" stroke="rgb(34,34,34)" stroke-opacity="1" stroke-width="2" d=" M-2,-2 C-2,-2 2,-2 2,-2 C2,-2 2,1 2,1 C2,1.5520000457763672 1.5520000457763672,2 1,2 C1,2 -1,2 -1,2 C-1.5520000457763672,2 -2,1.5520000457763672 -2,1 C-2,1 -2,-2 -2,-2 C-2,-2 -2,-2 -2,-2z"></path></g></g><g id="l_d_3525" transform="matrix(1.0000008344650269,0,0,1.0000008344650269,-24.00003433227539,-18.374406814575195)" opacity="1" style="display: block;"><g id="l_d_3529" opacity="1" transform="matrix(1,0,0,1,40,43)"><path id="l_d_3530" stroke-linecap="butt" stroke-linejoin="miter" fill-opacity="0" stroke-miterlimit="4" stroke="rgb(34,34,34)" stroke-opacity="1" stroke-width="2" d=" M-9,-5 C-9,-5 9,-5 9,-5 C11.208999633789062,-5 13,-3.2090001106262207 13,-1 C13,-1 13,4 13,4 C13,4.552000045776367 12.552000045776367,5 12,5 C12,5 -12,5 -12,5 C-12.552000045776367,5 -13,4.552000045776367 -13,4 C-13,4 -13,-1 -13,-1 C-13,-3.2090001106262207 -11.208999633789062,-5 -9,-5z"></path></g><g id="l_d_3531" opacity="1" transform="matrix(1,0,0,1,49,43)"><path id="l_d_3532" fill="rgb(34,34,34)" fill-opacity="1" d=" M0,-1 C0.5519999861717224,-1 1,-0.5519999861717224 1,0 C1,0.5519999861717224 0.5519999861717224,1 0,1 C-0.5519999861717224,1 -1,0.5519999861717224 -1,0 C-1,-0.5519999861717224 -0.5519999861717224,-1 0,-1z"></path></g><g id="l_d_3533" opacity="1" transform="matrix(1,0,0,1,31,43)"><path id="l_d_3534" fill="rgb(34,34,34)" fill-opacity="1" d=" M0,-1 C0.5519999861717224,-1 1,-0.5519999861717224 1,0 C1,0.5519999861717224 0.5519999861717224,1 0,1 C-0.5519999861717224,1 -1,0.5519999861717224 -1,0 C-1,-0.5519999861717224 -0.5519999861717224,-1 0,-1z"></path></g><g id="l_d_3535" opacity="1" transform="matrix(1,0,0,1,40,34)"><path id="l_d_3536" stroke-linecap="butt" stroke-linejoin="miter" fill-opacity="0" stroke-miterlimit="4" stroke="rgb(34,34,34)" stroke-opacity="1" stroke-width="2" d=" M-7.307000160217285,-4 C-7.307000160217285,-4 7.307000160217285,-4 7.307000160217285,-4 C7.723999977111816,-4 8.097000122070312,-3.740999937057495 8.243000030517578,-3.3510000705718994 C8.243000030517578,-3.3510000705718994 11,4 11,4 C11,4 11,4 11,4 C11,4 -11,4 -11,4 C-11,4 -8.243000030517578,-3.3510000705718994 -8.243000030517578,-3.3510000705718994 C-8.097000122070312,-3.740999937057495 -7.723999977111816,-4 -7.307000160217285,-4z"></path></g><g id="l_d_3537" opacity="1" transform="matrix(1,0,0,1,27.5,36)"><path id="l_d_3538" fill="rgb(34,34,34)" fill-opacity="1" d=" M-1.5,-1 C-1.5,-1 1.5,-1 1.5,-1 C1.5,-1 1.5,1 1.5,1 C1.5,1 -1.5,1 -1.5,1 C-1.5,1 -1.5,-1 -1.5,-1z"></path></g><g id="l_d_3539" opacity="1" transform="matrix(1,0,0,1,52.5,36)"><path id="l_d_3540" fill="rgb(34,34,34)" fill-opacity="1" d=" M-1.5,-1 C-1.5,-1 1.5,-1 1.5,-1 C1.5,-1 1.5,1 1.5,1 C1.5,1 -1.5,1 -1.5,1 C-1.5,1 -1.5,-1 -1.5,-1z"></path></g><g id="l_d_3541" opacity="1" transform="matrix(1,0,0,1,40,43)"><path id="l_d_3542" stroke-linecap="butt" stroke-linejoin="miter" fill-opacity="0" stroke-miterlimit="4" stroke="rgb(34,34,34)" stroke-opacity="1" stroke-width="2" d=" M-6,0 C-6,0 6,0 6,0"></path></g></g><g id="l_d_3517" clip-path="url(#__lottie_element_1442)" style="display: none;"><g id="l_d_3523"><path id="l_d_3524"></path></g></g><g id="l_d_3509" clip-path="url(#__lottie_element_1439)" style="display: none;"><g id="l_d_3515"><path id="l_d_3516"></path></g></g><g id="l_d_3501" clip-path="url(#__lottie_element_1436)" style="display: none;"><g id="l_d_3507"><path id="l_d_3508"></path></g></g><g id="l_d_3493" clip-path="url(#__lottie_element_1433)" style="display: none;"><g id="l_d_3499"><path id="l_d_3500"></path></g></g><g id="l_d_3485" clip-path="url(#__lottie_element_1430)" style="display: none;"><g id="l_d_3491"><path id="l_d_3492"></path></g></g><g id="l_d_3477" clip-path="url(#__lottie_element_1427)" style="display: none;"><g id="l_d_3483"><path id="l_d_3484"></path></g></g><g id="l_d_3469" clip-path="url(#__lottie_element_1424)" style="display: none;"><g id="l_d_3475"><path id="l_d_3476"></path></g></g></g></svg>